<svg id="svg" version="1.1" xmlns="http://www.w3.org/2000/svg" xmlns:xlink="http://www.w3.org/1999/xlink" width="400" height="225" viewBox="0, 0, 400,225"><g id="svgg"><path id="path0" d="M247.500 28.879 C 227.674 30.662,210.735 38.064,196.729 51.063 C 191.666 55.763,185.863 62.644,186.481 63.216 C 186.743 63.458,195.696 69.966,237.500 100.305 C 244.891 105.669,251.493 110.465,252.172 110.964 C 252.851 111.463,253.427 111.849,253.452 111.821 C 253.477 111.793,259.239 94.099,266.256 72.500 C 273.273 50.901,279.057 33.117,279.108 32.981 C 279.353 32.332,269.701 30.057,263.333 29.262 C 260.841 28.951,249.696 28.682,247.500 28.879 M279.269 33.177 C 279.218 33.320,273.594 50.641,266.770 71.667 C 259.946 92.693,254.230 110.297,254.067 110.787 C 253.859 111.413,253.844 111.633,254.017 111.526 C 254.569 111.185,320.425 63.376,320.714 63.106 C 320.830 62.998,320.373 62.230,319.582 61.202 C 310.021 48.778,296.094 38.605,281.862 33.651 C 279.501 32.830,279.399 32.811,279.269 33.177 M239.385 56.783 C 240.087 57.628,238.659 58.827,237.800 58.115 C 237.435 57.812,237.408 57.050,237.750 56.708 C 238.104 56.354,239.066 56.398,239.385 56.783 M241.427 57.024 C 240.326 58.528,237.856 61.467,237.768 61.379 C 237.708 61.319,238.532 60.190,239.598 58.869 C 240.664 57.548,241.575 56.506,241.623 56.553 C 241.670 56.601,241.582 56.813,241.427 57.024 M238.064 56.797 C 237.843 57.018,237.887 57.873,238.127 58.022 C 238.594 58.311,239.192 57.894,239.127 57.326 C 239.064 56.781,238.407 56.454,238.064 56.797 M231.757 57.532 C 232.886 58.046,232.678 58.840,231.148 59.850 C 229.689 60.814,229.705 61.042,231.233 61.042 C 231.939 61.042,232.500 61.134,232.500 61.250 C 232.500 61.369,231.875 61.458,231.042 61.458 C 228.957 61.458,229.034 60.383,231.198 59.290 C 232.020 58.874,232.097 58.217,231.363 57.883 C 230.954 57.696,230.746 57.718,230.332 57.989 C 229.804 58.335,229.375 58.132,229.846 57.760 C 230.461 57.274,231.040 57.205,231.757 57.532 M236.155 57.803 C 236.564 58.212,236.667 58.527,236.667 59.375 C 236.667 61.819,234.114 62.330,233.318 60.045 C 232.648 58.122,234.786 56.433,236.155 57.803 M234.074 58.171 C 233.314 59.257,233.890 61.042,235.000 61.042 C 235.765 61.042,236.250 60.377,236.250 59.329 C 236.250 57.915,234.796 57.141,234.074 58.171 M241.657 59.884 C 242.270 60.623,241.539 61.628,240.567 61.384 C 239.478 61.111,239.688 59.583,240.815 59.583 C 241.141 59.583,241.520 59.719,241.657 59.884 M240.426 60.093 C 239.864 60.771,240.795 61.586,241.419 60.962 C 241.684 60.697,241.711 60.534,241.537 60.257 C 241.232 59.773,240.750 59.702,240.426 60.093 M287.979 87.164 C 269.852 100.354,254.758 111.352,254.437 111.603 L 253.854 112.060 295.365 112.072 L 336.875 112.083 336.873 110.052 C 336.857 95.139,329.558 73.200,321.494 63.829 L 320.938 63.182 287.979 87.164 M184.621 65.156 C 165.536 93.598,165.330 129.949,184.094 158.244 C 184.954 159.540,185.768 160.685,185.902 160.787 C 186.168 160.990,253.021 112.512,253.021 112.116 C 253.021 111.853,256.311 114.267,217.859 86.317 C 200.468 73.676,186.150 63.333,186.041 63.333 C 185.933 63.333,185.294 64.154,184.621 65.156 M290.629 64.591 C 290.949 65.189,290.692 65.808,290.058 65.968 C 289.086 66.212,288.355 65.206,288.968 64.468 C 289.345 64.013,290.360 64.088,290.629 64.591 M291.022 66.751 C 289.961 68.077,289.049 69.118,288.996 69.065 C 288.884 68.954,288.782 69.093,291.033 66.292 C 291.981 65.112,292.801 64.190,292.854 64.243 C 292.908 64.297,292.083 65.425,291.022 66.751 M289.182 64.763 C 288.909 65.273,289.377 65.957,289.870 65.768 C 290.351 65.583,290.514 65.056,290.206 64.685 C 289.856 64.263,289.432 64.295,289.182 64.763 M287.405 65.511 C 287.814 65.920,287.917 66.235,287.917 67.083 C 287.917 69.528,285.364 70.038,284.568 67.753 C 283.898 65.831,286.036 64.142,287.405 65.511 M283.021 66.927 C 283.021 68.551,283.047 68.650,283.490 68.712 C 284.456 68.850,283.911 69.167,282.708 69.167 C 282.014 69.167,281.458 69.074,281.458 68.958 C 281.458 68.844,281.693 68.750,281.979 68.750 C 282.485 68.750,282.500 68.709,282.500 67.284 C 282.500 65.863,282.487 65.826,282.065 66.051 C 281.420 66.397,281.281 66.074,281.878 65.615 C 282.866 64.856,283.021 65.034,283.021 66.927 M285.324 65.880 C 284.603 66.909,285.138 68.750,286.158 68.750 C 286.939 68.750,287.500 68.054,287.500 67.083 C 287.500 65.626,286.060 64.829,285.324 65.880 M292.875 67.542 C 293.498 68.165,293.010 69.167,292.083 69.167 C 291.428 69.167,291.042 68.819,291.042 68.229 C 291.042 67.640,291.428 67.292,292.083 67.292 C 292.381 67.292,292.738 67.404,292.875 67.542 M291.606 67.630 C 291.284 67.952,291.466 68.724,291.896 68.861 C 292.451 69.037,292.763 68.730,292.674 68.097 C 292.605 67.612,291.923 67.313,291.606 67.630 M311.463 92.300 C 311.783 92.898,311.526 93.517,310.891 93.676 C 309.919 93.920,309.188 92.914,309.801 92.176 C 310.179 91.721,311.193 91.797,311.463 92.300 M311.855 94.459 C 310.794 95.785,309.882 96.827,309.829 96.773 C 309.718 96.662,309.616 96.801,311.866 94.000 C 312.815 92.820,313.634 91.898,313.688 91.952 C 313.741 92.005,312.916 93.133,311.855 94.459 M310.015 92.471 C 309.742 92.982,310.210 93.665,310.704 93.476 C 311.184 93.292,311.348 92.764,311.039 92.393 C 310.689 91.971,310.266 92.004,310.015 92.471 M308.239 93.220 C 308.648 93.629,308.750 93.943,308.750 94.792 C 308.750 97.236,306.198 97.747,305.401 95.461 C 304.731 93.539,306.869 91.850,308.239 93.220 M303.915 94.742 C 303.969 96.287,304.016 96.458,304.383 96.458 C 304.608 96.458,304.792 96.552,304.792 96.667 C 304.792 96.782,304.236 96.875,303.542 96.875 C 302.847 96.875,302.292 96.782,302.292 96.667 C 302.292 96.552,302.526 96.458,302.813 96.458 C 303.319 96.458,303.333 96.417,303.333 94.993 C 303.333 93.572,303.320 93.534,302.899 93.760 C 302.253 94.105,302.115 93.783,302.711 93.321 C 303.644 92.599,303.848 92.840,303.915 94.742 M306.158 93.588 C 305.437 94.618,305.971 96.458,306.991 96.458 C 307.773 96.458,308.333 95.762,308.333 94.792 C 308.333 93.334,306.894 92.537,306.158 93.588 M313.708 95.250 C 314.331 95.873,313.843 96.875,312.917 96.875 C 312.262 96.875,311.875 96.527,311.875 95.938 C 311.875 95.348,312.262 95.000,312.917 95.000 C 313.215 95.000,313.571 95.113,313.708 95.250 M74.531 95.433 C 74.078 95.697,73.978 100.561,74.417 101.000 C 74.885 101.469,79.731 101.336,79.993 100.847 C 80.358 100.165,80.269 95.923,79.881 95.536 C 79.496 95.151,75.159 95.068,74.531 95.433 M312.439 95.338 C 312.118 95.660,312.300 96.433,312.729 96.569 C 313.284 96.745,313.597 96.438,313.507 95.805 C 313.439 95.320,312.756 95.022,312.439 95.338 M81.875 98.229 C 81.875 99.549,81.958 100.417,82.083 100.417 C 82.198 100.417,82.292 100.042,82.292 99.583 L 82.292 98.750 83.197 98.750 C 84.236 98.750,84.792 98.296,84.792 97.447 C 84.792 96.659,83.909 96.042,82.784 96.042 L 81.875 96.042 81.875 98.229 M97.336 98.177 C 97.393 100.212,97.418 100.316,97.865 100.379 C 98.122 100.416,98.333 100.345,98.333 100.223 C 98.333 100.100,98.193 100.000,98.021 100.000 C 97.765 100.000,97.708 99.641,97.708 98.021 C 97.708 96.796,97.626 96.042,97.493 96.042 C 97.354 96.042,97.298 96.806,97.336 98.177 M84.048 96.786 C 84.792 97.530,84.191 98.542,83.006 98.542 L 82.292 98.542 82.292 97.500 L 82.292 96.458 83.006 96.458 C 83.399 96.458,83.868 96.606,84.048 96.786 M134.844 97.090 C 134.586 97.193,134.375 97.375,134.375 97.493 C 134.375 97.773,134.649 97.768,134.934 97.482 C 135.313 97.104,136.138 97.343,136.211 97.853 C 136.258 98.183,136.105 98.397,135.658 98.629 C 133.891 99.542,133.876 100.417,135.625 100.417 C 136.319 100.417,136.875 100.324,136.875 100.208 C 136.875 100.094,136.406 100.000,135.833 100.000 C 134.634 100.000,134.499 99.722,135.449 99.209 C 136.871 98.442,137.125 97.958,136.458 97.292 C 136.011 96.844,135.587 96.791,134.844 97.090 M137.932 97.424 C 137.046 98.550,137.696 100.417,138.973 100.417 C 139.886 100.417,140.417 99.766,140.417 98.646 C 140.417 96.980,138.877 96.223,137.932 97.424 M85.417 98.854 C 85.417 100.687,85.759 100.960,85.874 99.219 C 85.963 97.889,85.878 97.292,85.601 97.292 C 85.499 97.292,85.417 97.995,85.417 98.854 M86.223 97.643 C 85.972 97.953,85.983 97.978,86.319 97.852 C 86.529 97.773,86.787 97.708,86.892 97.708 C 86.997 97.708,87.083 97.615,87.083 97.500 C 87.083 97.168,86.536 97.259,86.223 97.643 M87.708 97.708 C 86.738 98.679,87.447 100.417,88.813 100.417 C 89.191 100.417,89.612 100.304,89.750 100.167 C 90.201 99.715,90.012 99.596,89.401 99.947 C 88.842 100.267,88.765 100.266,88.255 99.932 C 87.269 99.286,87.545 98.958,89.077 98.958 C 90.399 98.958,90.440 98.943,90.302 98.490 C 89.934 97.282,88.551 96.866,87.708 97.708 M91.050 97.594 C 90.606 98.129,90.897 98.619,91.860 98.953 C 92.921 99.322,93.129 99.663,92.498 100.001 C 92.184 100.169,91.875 100.177,91.444 100.026 C 90.823 99.810,90.559 100.059,91.163 100.290 C 92.050 100.631,93.333 100.213,93.333 99.583 C 93.333 99.247,92.712 98.784,92.071 98.643 C 90.753 98.354,91.151 97.392,92.500 97.607 C 93.035 97.693,93.146 97.667,92.917 97.511 C 92.455 97.197,91.338 97.247,91.050 97.594 M94.097 97.431 C 93.772 97.756,94.002 97.864,94.567 97.651 C 95.253 97.392,95.833 97.697,95.833 98.317 C 95.833 98.592,95.682 98.649,95.125 98.584 C 94.118 98.466,93.370 99.192,93.810 99.859 C 94.155 100.381,94.994 100.546,95.615 100.214 C 95.901 100.061,96.042 100.057,96.042 100.201 C 96.042 100.320,96.118 100.417,96.211 100.417 C 96.445 100.417,96.250 97.874,95.991 97.552 C 95.773 97.281,94.339 97.189,94.097 97.431 M99.053 97.719 C 98.142 98.726,98.855 100.417,100.192 100.417 C 100.820 100.417,101.646 99.910,101.407 99.671 C 101.322 99.586,101.081 99.672,100.870 99.862 C 100.374 100.312,99.940 100.300,99.511 99.827 C 98.894 99.145,99.088 98.958,100.417 98.958 C 101.528 98.958,101.667 98.912,101.667 98.542 C 101.667 97.429,99.837 96.853,99.053 97.719 M139.784 97.695 C 140.077 98.241,140.057 99.443,139.750 99.750 C 139.354 100.146,138.377 100.054,138.132 99.597 C 137.577 98.560,138.032 97.292,138.958 97.292 C 139.349 97.292,139.646 97.437,139.784 97.695 M89.591 97.924 C 90.182 98.515,89.939 98.750,88.738 98.750 C 87.634 98.750,87.463 98.533,88.053 97.881 C 88.504 97.382,89.065 97.398,89.591 97.924 M100.869 97.845 C 101.552 98.463,101.343 98.750,100.208 98.750 C 99.090 98.750,98.864 98.458,99.494 97.827 C 99.916 97.406,100.391 97.412,100.869 97.845 M95.504 98.876 C 95.970 99.055,95.913 99.734,95.409 100.004 C 94.559 100.459,93.659 99.704,94.295 99.069 C 94.635 98.728,94.976 98.674,95.504 98.876 M74.531 108.767 C 74.078 109.031,73.978 113.895,74.417 114.333 C 74.885 114.802,79.731 114.669,79.993 114.180 C 80.358 113.498,80.269 109.257,79.881 108.869 C 79.496 108.484,75.159 108.401,74.531 108.767 M199.333 109.208 C 199.932 109.807,199.474 110.833,198.609 110.833 C 197.942 110.833,197.394 109.962,197.701 109.389 C 197.959 108.906,198.924 108.799,199.333 109.208 M201.742 109.219 C 201.564 109.514,198.368 113.534,198.058 113.854 C 197.312 114.622,198.379 113.009,199.832 111.172 C 201.298 109.320,202.301 108.294,201.742 109.219 M198.135 109.468 C 197.572 110.146,198.503 110.961,199.127 110.337 C 199.393 110.072,199.420 109.909,199.245 109.632 C 198.941 109.148,198.459 109.077,198.135 109.468 M81.875 111.563 C 81.875 112.882,81.958 113.750,82.083 113.750 C 82.198 113.750,82.292 113.286,82.292 112.720 L 82.292 111.689 83.281 111.611 L 84.271 111.533 83.281 111.496 L 82.292 111.458 82.292 110.625 L 82.292 109.792 83.438 109.792 C 84.068 109.792,84.583 109.698,84.583 109.583 C 84.583 109.466,83.993 109.375,83.229 109.375 L 81.875 109.375 81.875 111.563 M98.125 110.250 C 98.125 110.931,98.069 111.069,97.875 110.875 C 97.048 110.048,95.625 110.908,95.625 112.234 C 95.625 113.430,97.115 114.260,97.884 113.491 C 98.090 113.285,98.181 113.295,98.331 113.537 C 98.624 114.012,98.650 113.795,98.580 111.510 C 98.517 109.485,98.125 108.398,98.125 110.250 M192.037 110.116 C 192.967 110.767,192.558 111.605,190.854 112.542 C 189.765 113.141,190.007 113.542,191.458 113.542 C 192.153 113.542,192.708 113.634,192.708 113.750 C 192.708 113.870,192.049 113.958,191.146 113.958 C 190.194 113.958,189.583 113.873,189.583 113.740 C 189.583 113.211,190.240 112.329,190.808 112.094 C 191.625 111.755,192.124 111.183,191.965 110.767 C 191.769 110.256,191.131 110.151,190.427 110.515 C 189.887 110.795,189.792 110.799,189.792 110.544 C 189.792 109.922,191.340 109.628,192.037 110.116 M195.928 109.921 C 196.392 110.099,196.875 111.096,196.875 111.875 C 196.875 113.738,195.113 114.667,193.943 113.421 C 192.472 111.856,193.992 109.178,195.928 109.921 M134.844 110.463 C 134.586 110.587,134.375 110.768,134.375 110.865 C 134.375 111.111,134.665 111.085,134.934 110.816 C 135.059 110.691,135.382 110.621,135.653 110.659 C 136.342 110.757,136.434 111.557,135.794 111.887 C 133.980 112.823,133.896 113.750,135.625 113.750 C 136.319 113.750,136.875 113.657,136.875 113.542 C 136.875 113.427,136.406 113.333,135.833 113.333 C 134.664 113.333,134.518 113.096,135.365 112.571 C 136.873 111.634,137.087 111.254,136.458 110.625 C 135.999 110.165,135.553 110.120,134.844 110.463 M137.932 110.757 C 137.046 111.883,137.696 113.750,138.973 113.750 C 139.886 113.750,140.417 113.099,140.417 111.979 C 140.417 110.313,138.877 109.556,137.932 110.757 M194.275 110.621 C 194.046 110.874,193.902 111.358,193.902 111.875 C 193.902 113.781,195.921 114.194,196.376 112.381 C 196.773 110.799,195.260 109.532,194.275 110.621 M85.223 111.174 C 83.979 112.756,86.090 114.730,87.464 113.268 C 88.065 112.627,88.052 111.659,87.434 111.078 C 86.752 110.437,85.770 110.480,85.223 111.174 M88.542 111.653 C 88.542 113.528,89.272 114.270,90.410 113.550 C 90.604 113.427,90.814 113.439,90.988 113.583 C 91.363 113.895,91.374 113.844,91.290 112.135 C 91.204 110.392,90.833 110.075,90.833 111.745 C 90.833 112.395,90.724 112.950,90.573 113.067 C 89.566 113.846,88.958 113.352,88.958 111.756 C 88.958 111.134,88.865 110.625,88.750 110.625 C 88.635 110.625,88.542 111.088,88.542 111.653 M92.295 112.135 C 92.291 113.998,92.657 114.337,92.750 112.557 C 92.867 110.315,94.375 110.286,94.375 112.526 C 94.375 113.203,94.468 113.750,94.583 113.750 C 94.808 113.750,94.874 111.499,94.665 110.955 C 94.512 110.556,93.327 110.507,92.950 110.884 C 92.744 111.090,92.651 111.079,92.495 110.832 C 92.361 110.621,92.297 111.042,92.295 112.135 M99.792 111.042 C 98.821 112.012,99.530 113.750,100.896 113.750 C 101.274 113.750,101.696 113.638,101.833 113.500 C 102.285 113.049,102.095 112.929,101.484 113.280 C 100.925 113.601,100.849 113.600,100.338 113.265 C 99.352 112.619,99.628 112.292,101.160 112.292 C 102.482 112.292,102.523 112.276,102.385 111.823 C 102.017 110.616,100.634 110.199,99.792 111.042 M103.125 112.188 C 103.125 114.015,103.492 114.307,103.583 112.552 C 103.636 111.542,103.719 111.322,104.115 111.149 C 104.372 111.035,104.583 110.871,104.583 110.784 C 104.583 110.537,104.070 110.597,103.792 110.875 C 103.597 111.069,103.542 111.069,103.542 110.875 C 103.542 110.737,103.448 110.625,103.333 110.625 C 103.213 110.625,103.125 111.285,103.125 112.188 M105.222 111.015 C 104.890 111.637,105.161 112.055,106.054 112.295 C 107.029 112.557,107.243 112.846,106.795 113.295 C 106.510 113.579,106.353 113.593,105.794 113.382 C 105.088 113.116,104.704 113.227,105.214 113.550 C 105.806 113.924,107.050 113.785,107.300 113.317 C 107.634 112.694,107.430 112.368,106.525 112.079 C 105.432 111.730,105.259 111.527,105.687 111.099 C 105.986 110.799,106.145 110.781,106.680 110.983 C 107.169 111.168,107.299 111.166,107.236 110.976 C 107.086 110.518,105.472 110.549,105.222 111.015 M139.750 110.875 C 139.888 111.013,140.000 111.509,140.000 111.979 C 140.000 113.281,138.680 113.954,138.132 112.930 C 137.380 111.525,138.710 109.835,139.750 110.875 M87.083 111.250 C 88.169 112.335,86.935 114.036,85.742 113.098 C 85.049 112.553,85.055 111.817,85.757 111.265 C 86.437 110.731,86.562 110.729,87.083 111.250 M97.673 111.166 C 98.746 111.917,97.823 113.843,96.665 113.269 C 95.692 112.786,96.028 110.833,97.083 110.833 C 97.147 110.833,97.412 110.983,97.673 111.166 M101.674 111.258 C 102.265 111.848,102.022 112.083,100.821 112.083 C 99.717 112.083,99.546 111.866,100.136 111.214 C 100.588 110.716,101.148 110.731,101.674 111.258 M201.889 112.526 C 202.253 113.206,201.831 113.958,201.088 113.958 C 200.390 113.958,200.000 113.623,200.000 113.021 C 200.000 112.056,201.436 111.680,201.889 112.526 M200.564 112.422 C 200.296 112.690,200.411 113.553,200.732 113.676 C 201.175 113.846,201.699 113.349,201.625 112.831 C 201.563 112.400,200.858 112.128,200.564 112.422 M74.531 122.100 C 74.078 122.364,73.978 127.228,74.417 127.667 C 74.885 128.135,79.731 128.002,79.993 127.514 C 80.358 126.831,80.269 122.590,79.881 122.202 C 79.496 121.818,75.159 121.735,74.531 122.100 M81.875 124.884 L 81.875 127.083 83.229 127.083 C 83.993 127.083,84.583 126.993,84.583 126.875 C 84.583 126.760,84.068 126.667,83.438 126.667 L 82.292 126.667 82.292 124.804 C 82.292 123.779,82.198 122.883,82.083 122.813 C 81.949 122.730,81.875 123.470,81.875 124.884 M85.208 123.021 C 85.208 123.193,85.302 123.333,85.417 123.333 C 85.531 123.333,85.625 123.193,85.625 123.021 C 85.625 122.849,85.531 122.708,85.417 122.708 C 85.302 122.708,85.208 122.849,85.208 123.021 M97.500 123.583 C 97.500 124.264,97.444 124.403,97.250 124.208 C 96.423 123.382,95.000 124.241,95.000 125.567 C 95.000 126.763,96.490 127.593,97.259 126.825 C 97.465 126.619,97.556 126.628,97.706 126.871 C 97.999 127.345,98.025 127.129,97.955 124.844 C 97.892 122.818,97.500 121.731,97.500 123.583 M98.958 123.021 C 98.958 123.193,99.052 123.333,99.167 123.333 C 99.281 123.333,99.375 123.193,99.375 123.021 C 99.375 122.849,99.281 122.708,99.167 122.708 C 99.052 122.708,98.958 122.849,98.958 123.021 M107.083 124.896 C 107.083 126.215,107.166 127.083,107.292 127.083 C 107.406 127.083,107.500 126.708,107.500 126.250 L 107.500 125.417 108.405 125.417 C 109.444 125.417,110.000 124.963,110.000 124.113 C 110.000 123.326,109.118 122.708,107.993 122.708 L 107.083 122.708 107.083 124.896 M123.125 123.542 C 123.125 124.333,122.885 124.621,122.604 124.167 C 122.341 123.742,121.290 123.946,120.848 124.507 C 119.755 125.898,121.180 127.693,122.722 126.868 C 123.000 126.719,123.125 126.719,123.125 126.868 C 123.125 126.986,123.219 127.083,123.333 127.083 C 123.459 127.083,123.542 126.215,123.542 124.896 C 123.542 123.576,123.459 122.708,123.333 122.708 C 123.219 122.708,123.125 123.083,123.125 123.542 M124.375 123.021 C 124.375 123.193,124.469 123.333,124.583 123.333 C 124.698 123.333,124.792 123.193,124.792 123.021 C 124.792 122.849,124.698 122.708,124.583 122.708 C 124.469 122.708,124.375 122.849,124.375 123.021 M100.417 123.438 C 100.417 123.724,100.311 123.958,100.183 123.958 C 100.016 123.958,100.013 124.035,100.171 124.226 C 100.293 124.373,100.422 125.053,100.457 125.736 C 100.518 126.919,100.549 126.982,101.094 127.045 C 101.409 127.081,101.667 127.011,101.667 126.889 C 101.667 126.767,101.479 126.667,101.250 126.667 C 100.663 126.667,100.614 124.255,101.198 124.102 C 101.545 124.011,101.545 124.006,101.198 123.983 C 100.954 123.966,100.833 123.785,100.833 123.438 C 100.833 123.151,100.740 122.917,100.625 122.917 C 100.510 122.917,100.417 123.151,100.417 123.438 M109.180 123.341 C 110.132 123.850,109.430 125.208,108.214 125.208 L 107.500 125.208 107.500 124.167 C 107.500 123.046,108.089 122.756,109.180 123.341 M135.541 123.865 C 135.326 124.023,135.045 124.189,134.918 124.235 C 134.791 124.281,134.750 124.385,134.826 124.468 C 134.902 124.550,135.160 124.512,135.399 124.385 C 135.817 124.161,135.833 124.199,135.833 125.409 C 135.833 126.528,135.787 126.667,135.417 126.667 C 135.188 126.667,135.000 126.760,135.000 126.875 C 135.000 126.990,135.474 127.083,136.054 127.083 C 136.704 127.083,137.059 127.003,136.979 126.875 C 136.908 126.760,136.715 126.667,136.550 126.667 C 136.318 126.667,136.250 126.341,136.250 125.221 C 136.250 123.646,136.137 123.430,135.541 123.865 M137.932 124.091 C 137.046 125.217,137.696 127.083,138.973 127.083 C 139.886 127.083,140.417 126.433,140.417 125.313 C 140.417 123.647,138.877 122.889,137.932 124.091 M85.208 125.521 C 85.208 126.424,85.296 127.083,85.417 127.083 C 85.537 127.083,85.625 126.424,85.625 125.521 C 85.625 124.618,85.537 123.958,85.417 123.958 C 85.296 123.958,85.208 124.618,85.208 125.521 M86.782 124.362 C 85.577 125.694,87.371 128.016,88.631 126.756 C 88.929 126.458,88.958 126.515,88.958 127.381 C 88.958 128.004,89.048 128.333,89.219 128.334 C 89.415 128.334,89.461 127.806,89.407 126.198 C 89.333 123.992,89.265 123.671,88.973 124.143 C 88.853 124.336,88.759 124.350,88.660 124.189 C 88.422 123.805,87.183 123.920,86.782 124.362 M90.208 125.118 C 90.208 126.521,90.474 127.083,91.136 127.083 C 91.762 127.083,92.292 126.885,92.292 126.650 C 92.292 126.548,92.082 126.548,91.812 126.651 C 90.948 126.979,90.625 126.584,90.625 125.198 C 90.625 124.510,90.532 123.958,90.417 123.958 C 90.302 123.958,90.208 124.480,90.208 125.118 M92.454 125.156 C 92.408 125.815,92.450 126.518,92.547 126.719 C 92.766 127.173,93.216 127.205,93.043 126.754 C 92.974 126.573,92.917 125.869,92.917 125.191 C 92.917 123.610,92.565 123.583,92.454 125.156 M93.750 125.521 C 93.750 126.424,93.838 127.083,93.958 127.083 C 94.079 127.083,94.167 126.424,94.167 125.521 C 94.167 124.618,94.079 123.958,93.958 123.958 C 93.838 123.958,93.750 124.618,93.750 125.521 M98.958 125.521 C 98.958 126.424,99.046 127.083,99.167 127.083 C 99.287 127.083,99.375 126.424,99.375 125.521 C 99.375 124.618,99.287 123.958,99.167 123.958 C 99.046 123.958,98.958 124.618,98.958 125.521 M102.628 125.558 L 103.357 127.158 102.908 127.765 C 102.497 128.320,102.492 128.366,102.842 128.298 C 103.255 128.218,105.153 123.958,104.775 123.958 C 104.664 123.958,104.493 124.169,104.395 124.427 C 104.296 124.685,104.054 125.271,103.857 125.729 L 103.497 126.563 102.904 125.260 C 102.578 124.544,102.218 123.958,102.105 123.958 C 101.991 123.958,102.227 124.678,102.628 125.558 M110.625 125.521 C 110.625 127.354,110.967 127.627,111.083 125.885 C 111.171 124.556,111.086 123.958,110.809 123.958 C 110.708 123.958,110.625 124.661,110.625 125.521 M111.458 124.271 C 111.126 124.671,111.465 124.676,111.991 124.277 C 112.331 124.020,112.342 123.971,112.057 123.965 C 111.870 123.961,111.601 124.099,111.458 124.271 M112.917 124.375 C 111.984 125.308,112.651 127.083,113.935 127.083 C 114.865 127.083,115.500 126.449,115.500 125.521 C 115.500 124.145,113.869 123.422,112.917 124.375 M115.833 124.042 C 115.833 124.359,117.090 126.981,117.271 127.042 C 117.396 127.083,117.582 126.899,117.686 126.632 C 117.789 126.364,118.070 125.654,118.309 125.052 C 118.548 124.451,118.659 123.958,118.556 123.958 C 118.452 123.958,118.149 124.521,117.883 125.208 C 117.616 125.896,117.350 126.458,117.292 126.458 C 117.233 126.458,116.967 125.896,116.701 125.208 C 116.314 124.212,115.833 123.565,115.833 124.042 M119.375 125.521 C 119.375 126.424,119.463 127.083,119.583 127.083 C 119.704 127.083,119.792 126.424,119.792 125.521 C 119.792 124.618,119.704 123.958,119.583 123.958 C 119.463 123.958,119.375 124.618,119.375 125.521 M124.375 125.521 C 124.375 126.424,124.463 127.083,124.583 127.083 C 124.704 127.083,124.792 126.424,124.792 125.521 C 124.792 124.618,124.704 123.958,124.583 123.958 C 124.463 123.958,124.375 124.618,124.375 125.521 M125.625 125.521 C 125.625 126.424,125.713 127.083,125.833 127.083 C 125.948 127.083,126.042 126.621,126.042 126.057 C 126.042 125.199,126.131 124.960,126.585 124.603 C 127.478 123.901,127.917 124.308,127.917 125.841 C 127.917 126.530,128.009 127.083,128.125 127.083 C 128.424 127.083,128.386 124.511,128.083 124.208 C 127.726 123.851,126.868 123.900,126.423 124.303 C 126.068 124.624,126.042 124.624,126.042 124.303 C 126.042 124.113,125.948 123.958,125.833 123.958 C 125.713 123.958,125.625 124.618,125.625 125.521 M129.470 124.385 C 128.310 125.667,129.759 127.673,131.264 126.868 C 131.599 126.688,131.667 126.721,131.667 127.061 C 131.667 128.003,130.730 128.321,129.479 127.803 C 129.108 127.649,129.094 127.669,129.348 127.982 C 129.750 128.475,131.283 128.456,131.739 127.952 C 132.133 127.516,132.255 123.958,131.875 123.958 C 131.760 123.958,131.667 124.071,131.667 124.208 C 131.667 124.403,131.611 124.403,131.417 124.208 C 131.016 123.808,129.901 123.909,129.470 124.385 M139.750 124.208 C 139.888 124.346,140.000 124.843,140.000 125.313 C 140.000 126.615,138.680 127.287,138.132 126.264 C 137.380 124.858,138.710 123.168,139.750 124.208 M88.495 124.491 C 89.566 125.241,88.654 127.284,87.519 126.677 C 86.595 126.182,86.461 125.395,87.178 124.678 C 87.779 124.077,87.883 124.062,88.495 124.491 M97.048 124.499 C 98.121 125.250,97.198 127.176,96.040 126.602 C 95.067 126.120,95.403 124.167,96.458 124.167 C 96.522 124.167,96.787 124.316,97.048 124.499 M114.697 124.678 C 115.414 125.395,115.280 126.182,114.356 126.677 C 113.221 127.284,112.309 125.241,113.380 124.491 C 113.992 124.062,114.096 124.077,114.697 124.678 M122.708 124.583 C 123.457 125.332,123.223 126.381,122.228 126.736 C 121.759 126.904,120.833 126.035,120.833 125.426 C 120.833 124.929,121.527 124.167,121.979 124.167 C 122.151 124.167,122.479 124.354,122.708 124.583 M131.204 124.491 C 132.275 125.241,131.362 127.284,130.227 126.677 C 129.303 126.182,129.169 125.395,129.886 124.678 C 130.487 124.077,130.592 124.062,131.204 124.491 M74.494 135.536 C 74.077 135.952,74.012 140.595,74.417 141.000 C 74.885 141.469,79.731 141.336,79.993 140.847 C 80.358 140.165,80.269 135.923,79.881 135.536 C 79.404 135.059,74.971 135.059,74.494 135.536 M81.875 138.217 C 81.875 140.767,82.243 141.236,82.335 138.802 L 82.396 137.188 83.075 138.385 C 83.915 139.869,83.912 139.869,84.796 138.281 L 85.521 136.979 85.581 138.698 C 85.667 141.142,86.042 140.856,86.042 138.346 C 86.042 135.769,85.870 135.654,84.785 137.511 C 84.310 138.325,83.892 138.960,83.857 138.922 C 83.822 138.885,83.453 138.273,83.038 137.562 C 81.943 135.686,81.875 135.725,81.875 138.217 M92.292 138.229 C 92.292 140.209,92.581 141.250,92.747 139.865 C 92.832 139.151,93.483 138.712,93.753 139.185 C 94.121 139.831,94.758 140.519,94.877 140.400 C 94.943 140.334,94.723 139.912,94.386 139.463 L 93.775 138.646 94.428 137.969 C 95.410 136.951,94.656 137.133,93.602 138.168 L 92.708 139.045 92.708 137.543 C 92.708 136.681,92.620 136.042,92.500 136.042 C 92.374 136.042,92.292 136.910,92.292 138.229 M99.167 136.771 C 99.167 137.121,99.051 137.292,98.814 137.292 C 98.488 137.292,98.487 137.311,98.806 137.552 C 99.045 137.732,99.169 138.197,99.211 139.063 C 99.268 140.254,99.298 140.316,99.844 140.378 C 100.159 140.415,100.417 140.344,100.417 140.222 C 100.417 140.100,100.229 140.000,100.000 140.000 C 99.413 140.000,99.364 137.588,99.948 137.435 C 100.295 137.345,100.295 137.339,99.948 137.316 C 99.704 137.300,99.583 137.119,99.583 136.771 C 99.583 136.484,99.490 136.250,99.375 136.250 C 99.260 136.250,99.167 136.484,99.167 136.771 M135.541 137.198 C 135.326 137.356,135.045 137.522,134.918 137.568 C 134.791 137.614,134.750 137.719,134.826 137.801 C 134.902 137.883,135.160 137.846,135.399 137.718 C 135.817 137.494,135.833 137.533,135.833 138.743 C 135.833 139.861,135.787 140.000,135.417 140.000 C 135.188 140.000,135.000 140.094,135.000 140.208 C 135.000 140.323,135.474 140.417,136.054 140.417 C 136.704 140.417,137.059 140.337,136.979 140.208 C 136.908 140.094,136.715 140.000,136.550 140.000 C 136.318 140.000,136.250 139.674,136.250 138.554 C 136.250 136.980,136.137 136.763,135.541 137.198 M137.932 137.424 C 136.658 139.043,138.573 141.427,140.000 140.000 C 140.575 139.425,140.570 137.952,139.992 137.331 C 139.396 136.692,138.475 136.733,137.932 137.424 M87.222 137.431 C 86.897 137.756,87.127 137.864,87.692 137.651 C 88.378 137.392,88.958 137.697,88.958 138.317 C 88.958 138.589,88.807 138.649,88.274 138.586 C 87.244 138.466,86.491 139.135,86.826 139.871 C 87.088 140.447,88.358 140.674,88.652 140.198 C 88.744 140.049,88.882 140.059,89.086 140.228 C 89.510 140.579,89.536 140.473,89.386 138.997 C 89.305 138.194,89.135 137.607,88.949 137.490 C 88.597 137.267,87.426 137.227,87.222 137.431 M90.208 138.854 C 90.208 140.687,90.550 140.960,90.666 139.219 C 90.754 137.889,90.669 137.292,90.392 137.292 C 90.291 137.292,90.208 137.995,90.208 138.854 M91.042 137.604 C 90.709 138.005,91.048 138.009,91.575 137.611 C 91.915 137.354,91.925 137.304,91.640 137.298 C 91.454 137.295,91.184 137.432,91.042 137.604 M95.661 137.774 C 94.444 139.069,96.414 141.419,97.667 140.167 C 98.092 139.741,97.942 139.542,97.454 139.884 C 96.842 140.313,96.543 140.293,96.042 139.792 C 95.365 139.115,95.540 138.958,96.979 138.958 C 98.489 138.958,98.638 138.777,97.902 137.841 C 97.337 137.123,96.302 137.092,95.661 137.774 M101.042 138.854 C 101.042 139.757,101.130 140.417,101.250 140.417 C 101.370 140.417,101.458 139.757,101.458 138.854 C 101.458 137.951,101.370 137.292,101.250 137.292 C 101.130 137.292,101.042 137.951,101.042 138.854 M102.292 138.854 C 102.292 139.757,102.380 140.417,102.500 140.417 C 102.615 140.417,102.708 139.913,102.708 139.296 C 102.708 138.646,102.818 138.091,102.969 137.975 C 103.975 137.196,104.583 137.690,104.583 139.286 C 104.583 139.908,104.677 140.417,104.792 140.417 C 105.059 140.417,105.063 138.526,104.797 137.826 C 104.576 137.245,103.855 137.109,103.111 137.507 C 102.834 137.656,102.708 137.656,102.708 137.507 C 102.708 137.389,102.615 137.292,102.500 137.292 C 102.380 137.292,102.292 137.951,102.292 138.854 M106.050 137.748 C 104.902 138.980,106.687 141.354,107.872 140.170 C 108.247 139.795,108.431 140.141,108.166 140.723 C 107.856 141.402,107.025 141.604,106.353 141.164 C 105.816 140.813,105.642 140.976,106.083 141.417 C 106.442 141.776,107.828 141.725,108.214 141.339 C 108.465 141.089,108.541 140.563,108.538 139.100 C 108.536 137.820,108.470 137.290,108.339 137.498 C 108.182 137.746,108.090 137.756,107.884 137.550 C 107.476 137.142,106.518 137.245,106.050 137.748 M139.750 137.542 C 139.888 137.679,140.000 138.176,140.000 138.646 C 140.000 139.948,138.680 140.620,138.132 139.597 C 137.380 138.191,138.710 136.502,139.750 137.542 M97.500 137.917 C 98.156 138.573,98.001 138.750,96.771 138.750 C 95.502 138.750,95.251 138.410,96.088 137.824 C 96.700 137.396,96.999 137.415,97.500 137.917 M107.784 137.932 C 108.729 138.675,108.341 140.052,107.188 140.052 C 106.108 140.052,105.653 138.722,106.458 137.917 C 106.979 137.396,107.105 137.397,107.784 137.932 M88.629 138.876 C 89.131 139.069,89.023 139.771,88.451 140.032 C 87.512 140.459,86.617 139.606,87.402 139.032 C 87.826 138.723,88.128 138.684,88.629 138.876 " stroke="none" fill="#192748" fill-rule="evenodd"></path><path id="path1" d="M74.306 82.222 C 74.016 82.512,74.151 87.436,74.456 87.689 C 74.650 87.850,75.600 87.910,77.321 87.871 L 79.896 87.813 79.954 84.948 L 80.012 82.083 77.228 82.083 C 75.697 82.083,74.382 82.146,74.306 82.222 M81.810 83.142 C 81.721 83.324,81.676 84.261,81.710 85.226 L 81.771 86.979 83.177 87.041 C 84.013 87.077,84.583 87.018,84.583 86.895 C 84.583 86.781,84.044 86.659,83.385 86.625 L 82.188 86.563 82.080 84.688 C 82.016 83.584,81.905 82.948,81.810 83.142 M98.958 85.012 C 98.958 86.356,99.033 87.062,99.167 86.979 C 99.281 86.908,99.375 86.475,99.375 86.016 C 99.375 84.571,100.111 83.825,100.863 84.506 C 101.149 84.765,101.250 85.150,101.250 85.982 C 101.250 86.680,101.329 87.059,101.458 86.979 C 101.787 86.776,101.703 84.937,101.342 84.421 C 100.992 83.921,100.419 83.831,99.778 84.174 C 99.415 84.368,99.375 84.317,99.375 83.653 C 99.375 83.248,99.281 82.917,99.167 82.917 C 99.042 82.917,98.958 83.754,98.958 85.012 M138.011 84.053 C 137.367 84.698,137.332 85.772,137.932 86.534 C 138.842 87.692,140.417 86.901,140.417 85.286 C 140.417 83.712,139.052 83.012,138.011 84.053 M135.482 84.527 C 135.160 84.959,134.732 85.494,134.531 85.716 C 133.945 86.366,134.085 86.637,135.044 86.707 C 135.783 86.761,135.940 86.853,136.043 87.292 L 136.166 87.813 136.496 87.153 C 136.729 86.687,136.761 86.427,136.605 86.271 C 136.483 86.150,136.405 85.588,136.430 85.022 C 136.491 83.696,136.212 83.550,135.482 84.527 M139.537 84.074 C 140.060 84.441,140.199 85.968,139.750 86.417 C 139.354 86.813,138.377 86.720,138.132 86.264 C 137.406 84.906,138.435 83.302,139.537 84.074 M85.655 84.143 C 85.473 84.259,85.656 84.313,86.173 84.297 C 87.293 84.261,87.724 86.450,86.652 86.731 C 85.658 86.991,85.047 86.308,85.677 85.641 C 85.887 85.418,85.880 85.382,85.640 85.455 C 85.476 85.505,85.242 85.704,85.120 85.898 C 84.631 86.673,85.885 87.405,86.833 86.898 C 87.112 86.748,87.306 86.760,87.494 86.937 C 87.709 87.139,87.738 86.929,87.646 85.842 C 87.503 84.164,86.702 83.480,85.655 84.143 M88.545 85.066 C 88.540 86.895,89.431 87.738,90.401 86.823 C 90.622 86.615,90.696 86.615,90.773 86.823 C 90.825 86.966,90.954 87.083,91.059 87.083 C 91.319 87.083,91.303 84.224,91.042 84.063 C 90.914 83.984,90.831 84.322,90.827 84.936 C 90.812 87.136,89.044 87.526,88.931 85.353 C 88.855 83.891,88.549 83.663,88.545 85.066 M92.083 85.521 C 92.083 86.424,92.171 87.083,92.292 87.083 C 92.406 87.083,92.500 86.615,92.500 86.042 C 92.500 85.278,92.611 84.889,92.917 84.583 C 93.796 83.704,94.375 84.283,94.375 86.040 C 94.375 86.699,94.455 87.059,94.583 86.979 C 94.850 86.814,94.854 85.190,94.588 84.493 C 94.366 83.908,93.811 83.800,93.069 84.197 C 92.735 84.375,92.604 84.375,92.545 84.197 C 92.311 83.495,92.083 84.148,92.083 85.521 M96.250 84.113 C 95.330 84.470,95.130 85.908,95.899 86.630 C 96.639 87.325,98.125 87.155,98.125 86.375 C 98.125 86.259,98.014 86.278,97.875 86.417 C 97.136 87.156,95.833 86.561,95.833 85.484 C 95.833 84.608,96.684 83.947,97.309 84.338 C 97.878 84.693,98.310 84.631,97.825 84.264 C 97.413 83.952,96.811 83.895,96.250 84.113 M135.959 86.166 C 135.838 86.480,134.886 86.571,134.710 86.286 C 134.651 86.191,134.903 85.747,135.270 85.301 L 135.938 84.488 136.004 85.181 C 136.041 85.561,136.020 86.005,135.959 86.166 M241.979 120.641 C 235.677 125.224,230.052 129.316,229.479 129.734 C 227.184 131.408,226.099 132.198,225.104 132.917 C 224.531 133.331,223.547 134.048,222.917 134.511 C 222.286 134.974,213.849 141.100,204.167 148.125 C 194.484 155.150,186.481 160.969,186.381 161.058 C 186.174 161.240,186.627 161.932,188.415 164.167 C 192.954 169.840,197.965 174.667,203.920 179.104 C 206.321 180.893,210.139 183.418,211.763 184.291 C 211.997 184.416,212.609 184.757,213.125 185.048 C 218.164 187.891,225.394 190.897,230.313 192.194 C 230.885 192.345,232.057 192.657,232.917 192.887 C 240.856 195.010,253.624 196.071,260.852 195.207 C 266.738 194.505,269.325 194.066,273.333 193.092 C 301.502 186.246,324.108 165.117,333.036 137.292 C 333.201 136.776,333.427 136.073,333.537 135.729 C 335.208 130.530,336.545 122.396,336.799 115.891 L 336.939 112.292 295.188 112.299 L 253.438 112.307 241.979 120.641 M275.090 162.126 C 275.363 162.516,275.369 162.648,275.130 163.011 C 274.576 163.850,273.333 163.580,273.333 162.620 C 273.333 161.643,274.518 161.310,275.090 162.126 M273.766 162.169 C 273.425 162.579,273.677 163.333,274.155 163.333 C 274.722 163.333,275.130 162.752,274.861 162.326 C 274.567 161.859,274.081 161.789,273.766 162.169 M277.146 162.153 C 276.767 162.784,275.301 164.566,275.153 164.574 C 275.065 164.579,275.472 163.974,276.057 163.229 C 277.034 161.987,277.553 161.473,277.146 162.153 M271.685 162.767 C 273.199 163.929,272.522 166.641,270.713 166.660 C 269.718 166.670,269.087 165.864,269.087 164.583 C 269.087 162.908,270.543 161.890,271.685 162.767 M267.708 164.271 C 267.708 165.521,267.771 165.833,268.021 165.833 C 268.193 165.833,268.333 165.917,268.333 166.019 C 268.333 166.122,268.193 166.259,268.021 166.325 C 267.849 166.391,267.708 166.683,267.708 166.973 C 267.708 167.684,267.336 167.647,267.253 166.927 C 267.192 166.393,267.114 166.350,266.094 166.291 C 264.729 166.213,264.733 166.125,266.175 164.242 C 267.631 162.340,267.708 162.342,267.708 164.271 M269.928 163.298 C 269.443 163.834,269.465 165.454,269.964 165.905 C 271.295 167.110,272.803 164.930,271.652 163.466 C 271.148 162.825,270.420 162.754,269.928 163.298 M266.978 163.909 C 266.715 164.102,265.625 165.556,265.625 165.715 C 265.625 165.780,266.000 165.833,266.458 165.833 L 267.292 165.833 267.292 164.792 C 267.292 164.219,267.268 163.751,267.240 163.753 C 267.211 163.755,267.093 163.825,266.978 163.909 M274.607 165.383 C 274.121 166.066,273.327 166.786,273.650 166.251 C 273.887 165.857,274.833 164.792,274.944 164.792 C 274.991 164.792,274.839 165.058,274.607 165.383 M277.266 164.979 C 277.423 165.079,277.552 165.417,277.552 165.729 C 277.552 166.664,276.269 167.065,275.841 166.264 C 275.316 165.284,276.319 164.380,277.266 164.979 M276.053 165.299 C 275.756 165.657,276.096 166.458,276.544 166.458 C 276.986 166.458,277.339 165.894,277.191 165.427 C 277.034 164.933,276.414 164.864,276.053 165.299 " stroke="none" fill="#fcae05" fill-rule="evenodd"></path><path id="path2" d="M0.000 112.500 L 0.000 225.000 200.000 225.000 L 400.000 225.000 400.000 112.500 L 400.000 0.000 200.000 0.000 L 0.000 0.000 0.000 112.500 M263.333 29.262 C 269.701 30.057,279.353 32.332,279.108 32.981 C 279.057 33.117,273.273 50.901,266.256 72.500 C 259.239 94.099,253.477 111.793,253.452 111.821 C 253.427 111.849,252.851 111.463,252.172 110.964 C 251.493 110.465,244.891 105.669,237.500 100.305 C 195.696 69.966,186.743 63.458,186.481 63.216 C 185.863 62.644,191.666 55.763,196.729 51.063 C 210.735 38.064,227.674 30.662,247.500 28.879 C 249.696 28.682,260.841 28.951,263.333 29.262 M281.862 33.651 C 296.094 38.605,310.021 48.778,319.582 61.202 C 320.373 62.230,320.830 62.998,320.714 63.106 C 320.425 63.376,254.569 111.185,254.017 111.526 C 253.844 111.633,253.859 111.413,254.067 110.787 C 254.230 110.297,259.946 92.693,266.770 71.667 C 273.594 50.641,279.218 33.320,279.269 33.177 C 279.399 32.811,279.501 32.830,281.862 33.651 M237.750 56.708 C 237.408 57.050,237.435 57.812,237.800 58.115 C 238.659 58.827,240.087 57.628,239.385 56.783 C 239.066 56.398,238.104 56.354,237.750 56.708 M239.598 58.869 C 238.532 60.190,237.708 61.319,237.768 61.379 C 237.827 61.438,238.611 60.569,239.511 59.448 C 241.556 56.897,241.729 56.660,241.623 56.553 C 241.575 56.506,240.664 57.548,239.598 58.869 M239.127 57.326 C 239.192 57.894,238.594 58.311,238.127 58.022 C 237.887 57.873,237.843 57.018,238.064 56.797 C 238.407 56.454,239.064 56.781,239.127 57.326 M230.417 57.440 C 229.907 57.629,229.580 57.951,229.701 58.146 C 229.763 58.247,230.047 58.176,230.332 57.989 C 230.746 57.718,230.954 57.696,231.363 57.883 C 232.097 58.217,232.020 58.874,231.198 59.290 C 229.034 60.383,228.957 61.458,231.042 61.458 C 231.875 61.458,232.500 61.369,232.500 61.250 C 232.500 61.134,231.939 61.042,231.233 61.042 C 229.705 61.042,229.689 60.814,231.148 59.850 C 233.089 58.568,232.511 56.665,230.417 57.440 M234.021 57.605 C 232.555 58.632,233.227 61.458,234.938 61.458 C 236.036 61.458,236.667 60.699,236.667 59.375 C 236.667 57.648,235.282 56.721,234.021 57.605 M235.833 58.125 C 236.740 59.032,236.166 61.042,235.000 61.042 C 234.246 61.042,233.750 60.380,233.750 59.375 C 233.750 57.903,234.913 57.205,235.833 58.125 M239.996 60.008 C 239.676 60.606,239.933 61.225,240.567 61.384 C 241.539 61.628,242.270 60.623,241.657 59.884 C 241.280 59.430,240.265 59.505,239.996 60.008 M241.537 60.257 C 241.711 60.534,241.684 60.697,241.419 60.962 C 240.795 61.586,239.864 60.771,240.426 60.093 C 240.750 59.702,241.232 59.773,241.537 60.257 M323.776 67.186 C 331.935 80.002,336.858 96.115,336.873 110.052 L 336.875 112.083 295.365 112.072 L 253.854 112.060 254.437 111.603 C 254.758 111.352,269.852 100.354,287.979 87.164 L 320.938 63.182 321.494 63.829 C 321.800 64.185,322.827 65.695,323.776 67.186 M217.859 86.317 C 256.311 114.267,253.021 111.853,253.021 112.116 C 253.021 112.512,186.168 160.990,185.902 160.787 C 185.768 160.685,184.954 159.540,184.094 158.244 C 167.317 132.945,165.585 100.536,179.573 73.646 C 181.784 69.395,185.586 63.333,186.041 63.333 C 186.150 63.333,200.468 73.676,217.859 86.317 M288.968 64.468 C 288.355 65.206,289.086 66.212,290.058 65.968 C 291.147 65.694,290.937 64.167,289.810 64.167 C 289.484 64.167,289.105 64.302,288.968 64.468 M291.033 66.292 C 288.782 69.093,288.884 68.954,288.996 69.065 C 289.049 69.118,289.961 68.077,291.022 66.751 C 292.083 65.425,292.908 64.297,292.854 64.243 C 292.801 64.190,291.981 65.112,291.033 66.292 M290.206 64.685 C 290.514 65.056,290.351 65.583,289.870 65.768 C 289.377 65.957,288.909 65.273,289.182 64.763 C 289.432 64.295,289.856 64.263,290.206 64.685 M285.271 65.313 C 283.805 66.340,284.477 69.167,286.188 69.167 C 287.286 69.167,287.917 68.407,287.917 67.083 C 287.917 65.356,286.532 64.430,285.271 65.313 M281.878 65.615 C 281.281 66.074,281.420 66.397,282.065 66.051 C 282.487 65.826,282.500 65.863,282.500 67.284 C 282.500 68.709,282.485 68.750,281.979 68.750 C 281.693 68.750,281.458 68.844,281.458 68.958 C 281.458 69.074,282.014 69.167,282.708 69.167 C 283.911 69.167,284.456 68.850,283.490 68.712 C 283.047 68.650,283.021 68.551,283.021 66.927 C 283.021 65.034,282.866 64.856,281.878 65.615 M287.083 65.833 C 288.012 66.762,287.381 68.750,286.158 68.750 C 285.501 68.750,285.000 68.029,285.000 67.083 C 285.000 65.611,286.163 64.913,287.083 65.833 M291.292 67.542 C 290.669 68.165,291.157 69.167,292.083 69.167 C 292.738 69.167,293.125 68.819,293.125 68.229 C 293.125 67.640,292.738 67.292,292.083 67.292 C 291.785 67.292,291.429 67.404,291.292 67.542 M292.674 68.097 C 292.763 68.730,292.451 69.037,291.896 68.861 C 291.466 68.724,291.284 67.952,291.606 67.630 C 291.923 67.313,292.605 67.612,292.674 68.097 M79.954 84.948 L 79.896 87.813 77.321 87.871 C 74.018 87.946,74.167 88.086,74.167 84.905 C 74.167 81.816,73.877 82.083,77.228 82.083 L 80.012 82.083 79.954 84.948 M83.385 86.625 C 84.044 86.659,84.583 86.781,84.583 86.895 C 84.583 87.018,84.013 87.077,83.177 87.041 L 81.771 86.979 81.710 85.226 C 81.625 82.798,81.944 82.334,82.080 84.688 L 82.188 86.563 83.385 86.625 M99.375 83.653 C 99.375 84.317,99.415 84.368,99.778 84.174 C 100.419 83.831,100.992 83.921,101.342 84.421 C 101.703 84.937,101.787 86.776,101.458 86.979 C 101.329 87.059,101.250 86.680,101.250 85.982 C 101.250 85.150,101.149 84.765,100.863 84.506 C 100.111 83.825,99.375 84.571,99.375 86.016 C 99.375 86.475,99.281 86.908,99.167 86.979 C 99.033 87.062,98.958 86.356,98.958 85.012 C 98.958 83.754,99.042 82.917,99.167 82.917 C 99.281 82.917,99.375 83.248,99.375 83.653 M139.992 83.998 C 140.272 84.299,140.417 84.736,140.417 85.286 C 140.417 86.901,138.842 87.692,137.932 86.534 C 136.663 84.921,138.614 82.519,139.992 83.998 M136.430 85.022 C 136.405 85.588,136.483 86.150,136.605 86.271 C 136.761 86.427,136.729 86.687,136.496 87.153 L 136.166 87.813 136.043 87.292 C 135.940 86.853,135.783 86.761,135.044 86.707 C 134.085 86.637,133.945 86.366,134.531 85.716 C 134.732 85.494,135.160 84.959,135.482 84.527 C 136.212 83.550,136.491 83.696,136.430 85.022 M138.333 84.167 C 137.517 84.983,137.914 86.667,138.924 86.667 C 139.724 86.667,140.000 86.312,140.000 85.283 C 140.000 83.969,139.120 83.380,138.333 84.167 M87.164 84.228 C 87.424 84.418,87.565 84.892,87.646 85.842 C 87.738 86.929,87.709 87.139,87.494 86.937 C 87.306 86.760,87.112 86.748,86.833 86.898 C 85.885 87.405,84.631 86.673,85.120 85.898 C 85.242 85.704,85.476 85.505,85.640 85.455 C 85.880 85.382,85.887 85.418,85.677 85.641 C 85.047 86.308,85.658 86.991,86.652 86.731 C 87.724 86.450,87.293 84.261,86.173 84.297 C 85.656 84.313,85.473 84.259,85.655 84.143 C 86.068 83.882,86.742 83.920,87.164 84.228 M88.931 85.353 C 89.044 87.526,90.812 87.136,90.827 84.936 C 90.831 84.322,90.914 83.984,91.042 84.063 C 91.303 84.224,91.319 87.083,91.059 87.083 C 90.954 87.083,90.825 86.966,90.773 86.823 C 90.696 86.615,90.622 86.615,90.401 86.823 C 89.431 87.738,88.540 86.895,88.545 85.066 C 88.549 83.663,88.855 83.891,88.931 85.353 M92.545 84.197 C 92.604 84.375,92.735 84.375,93.069 84.197 C 93.811 83.800,94.366 83.908,94.588 84.493 C 94.854 85.190,94.850 86.814,94.583 86.979 C 94.455 87.059,94.375 86.699,94.375 86.040 C 94.375 84.283,93.796 83.704,92.917 84.583 C 92.611 84.889,92.500 85.278,92.500 86.042 C 92.500 86.615,92.406 87.083,92.292 87.083 C 92.171 87.083,92.083 86.424,92.083 85.521 C 92.083 84.148,92.311 83.495,92.545 84.197 M97.825 84.264 C 98.310 84.631,97.878 84.693,97.309 84.338 C 96.684 83.947,95.833 84.608,95.833 85.484 C 95.833 86.338,96.152 86.667,96.979 86.667 C 97.334 86.667,97.737 86.554,97.875 86.417 C 98.014 86.278,98.125 86.259,98.125 86.375 C 98.125 87.155,96.639 87.325,95.899 86.630 C 94.519 85.334,96.318 83.124,97.825 84.264 M135.270 85.301 C 134.537 86.193,134.551 86.458,135.331 86.458 C 135.931 86.458,136.097 86.142,136.004 85.181 L 135.938 84.488 135.270 85.301 M309.801 92.176 C 309.188 92.914,309.919 93.920,310.891 93.676 C 311.981 93.403,311.770 91.875,310.643 91.875 C 310.317 91.875,309.939 92.010,309.801 92.176 M311.866 94.000 C 309.616 96.801,309.718 96.662,309.829 96.773 C 309.882 96.827,310.794 95.785,311.855 94.459 C 312.916 93.133,313.741 92.005,313.688 91.952 C 313.634 91.898,312.815 92.820,311.866 94.000 M311.039 92.393 C 311.348 92.764,311.184 93.292,310.704 93.476 C 310.210 93.665,309.742 92.982,310.015 92.471 C 310.266 92.004,310.689 91.971,311.039 92.393 M306.104 93.021 C 304.638 94.048,305.311 96.875,307.021 96.875 C 308.120 96.875,308.750 96.116,308.750 94.792 C 308.750 93.065,307.365 92.138,306.104 93.021 M302.711 93.321 C 302.115 93.783,302.253 94.105,302.899 93.760 C 303.320 93.534,303.333 93.572,303.333 94.993 C 303.333 96.417,303.319 96.458,302.813 96.458 C 302.526 96.458,302.292 96.552,302.292 96.667 C 302.292 96.782,302.847 96.875,303.542 96.875 C 304.236 96.875,304.792 96.782,304.792 96.667 C 304.792 96.552,304.608 96.458,304.383 96.458 C 304.016 96.458,303.969 96.287,303.915 94.742 C 303.848 92.840,303.644 92.599,302.711 93.321 M307.917 93.542 C 308.845 94.470,308.214 96.458,306.991 96.458 C 306.334 96.458,305.833 95.738,305.833 94.792 C 305.833 93.320,306.997 92.622,307.917 93.542 M312.125 95.250 C 311.502 95.873,311.990 96.875,312.917 96.875 C 313.572 96.875,313.958 96.527,313.958 95.938 C 313.958 95.348,313.572 95.000,312.917 95.000 C 312.619 95.000,312.263 95.113,312.125 95.250 M79.881 95.536 C 80.269 95.923,80.358 100.165,79.993 100.847 C 79.731 101.336,74.885 101.469,74.417 101.000 C 73.978 100.561,74.078 95.697,74.531 95.433 C 75.159 95.068,79.496 95.151,79.881 95.536 M313.507 95.805 C 313.597 96.438,313.284 96.745,312.729 96.569 C 312.300 96.433,312.118 95.660,312.439 95.338 C 312.756 95.022,313.439 95.320,313.507 95.805 M84.243 96.473 C 85.380 97.368,84.746 98.750,83.197 98.750 L 82.292 98.750 82.292 99.583 C 82.292 100.042,82.198 100.417,82.083 100.417 C 81.958 100.417,81.875 99.549,81.875 98.229 L 81.875 96.042 82.784 96.042 C 83.389 96.042,83.878 96.186,84.243 96.473 M97.708 98.021 C 97.708 99.641,97.765 100.000,98.021 100.000 C 98.193 100.000,98.333 100.100,98.333 100.223 C 98.333 100.345,98.122 100.416,97.865 100.379 C 97.349 100.306,96.984 96.042,97.493 96.042 C 97.626 96.042,97.708 96.796,97.708 98.021 M82.292 97.500 L 82.292 98.542 83.006 98.542 C 83.793 98.542,84.375 98.099,84.375 97.500 C 84.375 96.901,83.793 96.458,83.006 96.458 L 82.292 96.458 82.292 97.500 M136.458 97.292 C 137.125 97.958,136.871 98.442,135.449 99.209 C 134.499 99.722,134.634 100.000,135.833 100.000 C 136.406 100.000,136.875 100.094,136.875 100.208 C 136.875 100.324,136.319 100.417,135.625 100.417 C 133.876 100.417,133.891 99.542,135.658 98.629 C 136.105 98.397,136.258 98.183,136.211 97.853 C 136.138 97.343,135.313 97.104,134.934 97.482 C 134.649 97.768,134.375 97.773,134.375 97.493 C 134.375 96.884,135.903 96.736,136.458 97.292 M140.000 97.292 C 140.293 97.585,140.417 97.986,140.417 98.646 C 140.417 100.312,138.877 101.069,137.932 99.868 C 136.658 98.249,138.573 95.864,140.000 97.292 M85.869 97.656 C 86.012 98.270,85.807 100.417,85.606 100.417 C 85.502 100.417,85.417 99.714,85.417 98.854 C 85.417 97.424,85.664 96.770,85.869 97.656 M87.083 97.500 C 87.083 97.615,86.997 97.708,86.892 97.708 C 86.787 97.708,86.529 97.773,86.319 97.852 C 85.983 97.978,85.972 97.953,86.223 97.643 C 86.536 97.259,87.083 97.168,87.083 97.500 M89.839 97.656 C 90.723 98.664,90.551 98.958,89.077 98.958 C 87.545 98.958,87.269 99.286,88.255 99.932 C 88.765 100.266,88.842 100.267,89.401 99.947 C 90.012 99.596,90.201 99.715,89.750 100.167 C 88.930 100.986,87.292 100.111,87.292 98.854 C 87.292 97.511,89.004 96.706,89.839 97.656 M92.917 97.511 C 93.146 97.667,93.035 97.693,92.500 97.607 C 91.151 97.392,90.753 98.354,92.071 98.643 C 92.712 98.784,93.333 99.247,93.333 99.583 C 93.333 100.213,92.050 100.631,91.163 100.290 C 90.559 100.059,90.823 99.810,91.444 100.026 C 91.875 100.177,92.184 100.169,92.498 100.001 C 93.129 99.663,92.921 99.322,91.860 98.953 C 90.897 98.619,90.606 98.129,91.050 97.594 C 91.338 97.247,92.455 97.197,92.917 97.511 M95.991 97.552 C 96.250 97.874,96.445 100.417,96.211 100.417 C 96.118 100.417,96.042 100.320,96.042 100.201 C 96.042 100.057,95.901 100.061,95.615 100.214 C 94.994 100.546,94.155 100.381,93.810 99.859 C 93.370 99.192,94.118 98.466,95.125 98.584 C 95.682 98.649,95.833 98.592,95.833 98.317 C 95.833 97.697,95.253 97.392,94.567 97.651 C 94.002 97.864,93.772 97.756,94.097 97.431 C 94.339 97.189,95.773 97.281,95.991 97.552 M101.250 97.708 C 102.089 98.548,101.816 98.958,100.417 98.958 C 99.088 98.958,98.894 99.145,99.511 99.827 C 99.940 100.300,100.374 100.312,100.870 99.862 C 101.081 99.672,101.322 99.586,101.407 99.671 C 101.646 99.910,100.820 100.417,100.192 100.417 C 98.855 100.417,98.142 98.726,99.053 97.719 C 99.561 97.158,100.694 97.152,101.250 97.708 M138.132 97.695 C 137.380 99.100,138.710 100.790,139.750 99.750 C 140.450 99.050,139.884 97.292,138.958 97.292 C 138.568 97.292,138.270 97.437,138.132 97.695 M88.053 97.881 C 87.463 98.533,87.634 98.750,88.738 98.750 C 89.939 98.750,90.182 98.515,89.591 97.924 C 89.065 97.398,88.504 97.382,88.053 97.881 M99.494 97.827 C 98.864 98.458,99.090 98.750,100.208 98.750 C 101.343 98.750,101.552 98.463,100.869 97.845 C 100.391 97.412,99.916 97.406,99.494 97.827 M94.295 99.069 C 93.659 99.704,94.559 100.459,95.409 100.004 C 95.913 99.734,95.970 99.055,95.504 98.876 C 94.976 98.674,94.635 98.728,94.295 99.069 M79.881 108.869 C 80.269 109.257,80.358 113.498,79.993 114.180 C 79.731 114.669,74.885 114.802,74.417 114.333 C 73.978 113.895,74.078 109.031,74.531 108.767 C 75.159 108.401,79.496 108.484,79.881 108.869 M197.701 109.389 C 197.522 109.724,197.544 109.932,197.802 110.326 C 198.365 111.185,199.583 110.890,199.583 109.896 C 199.583 108.941,198.148 108.554,197.701 109.389 M199.832 111.172 C 198.379 113.009,197.312 114.622,198.058 113.854 C 198.368 113.534,201.564 109.514,201.742 109.219 C 202.301 108.294,201.298 109.320,199.832 111.172 M199.245 109.632 C 199.420 109.909,199.393 110.072,199.127 110.337 C 198.503 110.961,197.572 110.146,198.135 109.468 C 198.459 109.077,198.941 109.148,199.245 109.632 M84.583 109.583 C 84.583 109.698,84.068 109.792,83.438 109.792 L 82.292 109.792 82.292 110.625 L 82.292 111.458 83.281 111.496 L 84.271 111.533 83.281 111.611 L 82.292 111.689 82.292 112.720 C 82.292 113.286,82.198 113.750,82.083 113.750 C 81.958 113.750,81.875 112.882,81.875 111.563 L 81.875 109.375 83.229 109.375 C 83.993 109.375,84.583 109.466,84.583 109.583 M98.580 111.510 C 98.650 113.795,98.624 114.012,98.331 113.537 C 98.181 113.295,98.090 113.285,97.884 113.491 C 97.115 114.260,95.625 113.430,95.625 112.234 C 95.625 110.908,97.048 110.048,97.875 110.875 C 98.069 111.069,98.125 110.931,98.125 110.250 C 98.125 108.398,98.517 109.485,98.580 111.510 M190.365 110.034 C 190.049 110.149,189.792 110.378,189.792 110.544 C 189.792 110.799,189.887 110.795,190.427 110.515 C 191.131 110.151,191.769 110.256,191.965 110.767 C 192.124 111.183,191.625 111.755,190.808 112.094 C 190.240 112.329,189.583 113.211,189.583 113.740 C 189.583 113.873,190.194 113.958,191.146 113.958 C 192.049 113.958,192.708 113.870,192.708 113.750 C 192.708 113.634,192.153 113.542,191.458 113.542 C 190.007 113.542,189.765 113.141,190.854 112.542 C 192.558 111.605,192.967 110.767,192.037 110.116 C 191.514 109.750,191.187 109.733,190.365 110.034 M193.943 110.329 C 192.833 111.511,193.559 113.958,195.019 113.958 C 195.874 113.958,196.233 113.762,196.570 113.110 C 197.690 110.944,195.521 108.649,193.943 110.329 M136.458 110.625 C 137.087 111.254,136.873 111.634,135.365 112.571 C 134.518 113.096,134.664 113.333,135.833 113.333 C 136.406 113.333,136.875 113.427,136.875 113.542 C 136.875 113.657,136.319 113.750,135.625 113.750 C 133.896 113.750,133.980 112.823,135.794 111.887 C 136.434 111.557,136.342 110.757,135.653 110.659 C 135.382 110.621,135.059 110.691,134.934 110.816 C 134.665 111.085,134.375 111.111,134.375 110.865 C 134.375 110.253,135.910 110.076,136.458 110.625 M140.000 110.625 C 140.293 110.918,140.417 111.319,140.417 111.979 C 140.417 113.645,138.877 114.402,137.932 113.201 C 136.658 111.582,138.573 109.198,140.000 110.625 M195.922 110.535 C 196.906 111.519,196.367 113.542,195.122 113.542 C 194.410 113.542,193.902 112.847,193.902 111.875 C 193.902 110.477,195.082 109.695,195.922 110.535 M87.434 111.078 C 88.442 112.024,87.730 113.750,86.333 113.750 C 85.849 113.750,85.532 113.593,85.223 113.201 C 83.991 111.635,85.987 109.718,87.434 111.078 M88.958 111.756 C 88.958 113.352,89.566 113.846,90.573 113.067 C 90.724 112.950,90.833 112.395,90.833 111.745 C 90.833 110.075,91.204 110.392,91.290 112.135 C 91.374 113.844,91.363 113.895,90.988 113.583 C 90.814 113.439,90.604 113.427,90.410 113.550 C 89.784 113.946,88.960 113.781,88.745 113.216 C 88.479 112.516,88.483 110.625,88.750 110.625 C 88.865 110.625,88.958 111.134,88.958 111.756 M92.950 110.884 C 93.327 110.507,94.512 110.556,94.665 110.955 C 94.874 111.499,94.808 113.750,94.583 113.750 C 94.468 113.750,94.375 113.203,94.375 112.526 C 94.375 110.286,92.867 110.315,92.750 112.557 C 92.657 114.337,92.291 113.998,92.295 112.135 C 92.297 111.042,92.361 110.621,92.495 110.832 C 92.651 111.079,92.744 111.090,92.950 110.884 M101.922 110.990 C 102.807 111.997,102.634 112.292,101.160 112.292 C 99.628 112.292,99.352 112.619,100.338 113.265 C 100.849 113.600,100.925 113.601,101.484 113.280 C 102.095 112.929,102.285 113.049,101.833 113.500 C 101.014 114.320,99.375 113.445,99.375 112.188 C 99.375 110.844,101.088 110.039,101.922 110.990 M103.542 110.875 C 103.542 111.069,103.597 111.069,103.792 110.875 C 104.070 110.597,104.583 110.537,104.583 110.784 C 104.583 110.871,104.372 111.035,104.115 111.149 C 103.719 111.322,103.636 111.542,103.583 112.552 C 103.492 114.307,103.125 114.015,103.125 112.188 C 103.125 111.285,103.213 110.625,103.333 110.625 C 103.448 110.625,103.542 110.737,103.542 110.875 M107.236 110.976 C 107.299 111.166,107.169 111.168,106.680 110.983 C 106.145 110.781,105.986 110.799,105.687 111.099 C 105.259 111.527,105.432 111.730,106.525 112.079 C 107.430 112.368,107.634 112.694,107.300 113.317 C 107.050 113.785,105.806 113.924,105.214 113.550 C 104.704 113.227,105.088 113.116,105.794 113.382 C 106.353 113.593,106.510 113.579,106.795 113.295 C 107.243 112.846,107.029 112.557,106.054 112.295 C 105.161 112.055,104.890 111.637,105.222 111.015 C 105.472 110.549,107.086 110.518,107.236 110.976 M138.132 111.028 C 137.589 112.044,138.032 113.333,138.924 113.333 C 139.719 113.333,140.000 112.979,140.000 111.979 C 140.000 110.677,138.680 110.005,138.132 111.028 M85.757 111.265 C 85.055 111.817,85.049 112.553,85.742 113.098 C 86.935 114.036,88.169 112.335,87.083 111.250 C 86.562 110.729,86.437 110.731,85.757 111.265 M96.493 111.166 C 95.388 111.940,96.479 113.991,97.602 113.250 C 98.459 112.684,98.061 110.833,97.083 110.833 C 97.020 110.833,96.754 110.983,96.493 111.166 M100.136 111.214 C 99.546 111.866,99.717 112.083,100.821 112.083 C 102.022 112.083,102.265 111.848,101.674 111.258 C 101.148 110.731,100.588 110.716,100.136 111.214 M200.250 112.333 C 199.611 112.973,200.119 113.958,201.088 113.958 C 201.831 113.958,202.253 113.206,201.889 112.526 C 201.624 112.031,200.665 111.918,200.250 112.333 M201.625 112.831 C 201.699 113.349,201.175 113.846,200.732 113.676 C 200.411 113.553,200.296 112.690,200.564 112.422 C 200.858 112.128,201.563 112.400,201.625 112.831 M336.799 115.891 C 336.545 122.396,335.208 130.530,333.537 135.729 C 333.427 136.073,333.201 136.776,333.036 137.292 C 324.108 165.117,301.502 186.246,273.333 193.092 C 269.325 194.066,266.738 194.505,260.852 195.207 C 253.624 196.071,240.856 195.010,232.917 192.887 C 232.057 192.657,230.885 192.345,230.313 192.194 C 225.394 190.897,218.164 187.891,213.125 185.048 C 212.609 184.757,211.997 184.416,211.763 184.291 C 206.760 181.601,199.678 176.132,194.474 170.939 C 190.561 167.033,185.966 161.423,186.381 161.058 C 186.481 160.969,194.484 155.150,204.167 148.125 C 213.849 141.100,222.286 134.974,222.917 134.511 C 223.547 134.048,224.531 133.331,225.104 132.917 C 226.099 132.198,227.184 131.408,229.479 129.734 C 230.052 129.316,235.677 125.224,241.979 120.641 L 253.438 112.307 295.188 112.299 L 336.939 112.292 336.799 115.891 M79.881 122.202 C 80.269 122.590,80.358 126.831,79.993 127.514 C 79.731 128.002,74.885 128.135,74.417 127.667 C 73.978 127.228,74.078 122.364,74.531 122.100 C 75.159 121.735,79.496 121.818,79.881 122.202 M82.292 124.804 L 82.292 126.667 83.438 126.667 C 84.068 126.667,84.583 126.760,84.583 126.875 C 84.583 126.993,83.993 127.083,83.229 127.083 L 81.875 127.083 81.875 124.884 C 81.875 123.470,81.949 122.730,82.083 122.813 C 82.198 122.883,82.292 123.779,82.292 124.804 M85.625 123.021 C 85.625 123.193,85.531 123.333,85.417 123.333 C 85.302 123.333,85.208 123.193,85.208 123.021 C 85.208 122.849,85.302 122.708,85.417 122.708 C 85.531 122.708,85.625 122.849,85.625 123.021 M97.955 124.844 C 98.025 127.129,97.999 127.345,97.706 126.871 C 97.556 126.628,97.465 126.619,97.259 126.825 C 96.490 127.593,95.000 126.763,95.000 125.567 C 95.000 124.241,96.423 123.382,97.250 124.208 C 97.444 124.403,97.500 124.264,97.500 123.583 C 97.500 121.731,97.892 122.818,97.955 124.844 M99.375 123.021 C 99.375 123.193,99.281 123.333,99.167 123.333 C 99.052 123.333,98.958 123.193,98.958 123.021 C 98.958 122.849,99.052 122.708,99.167 122.708 C 99.281 122.708,99.375 122.849,99.375 123.021 M109.451 123.140 C 110.589 124.035,109.954 125.417,108.405 125.417 L 107.500 125.417 107.500 126.250 C 107.500 126.708,107.406 127.083,107.292 127.083 C 107.166 127.083,107.083 126.215,107.083 124.896 L 107.083 122.708 107.993 122.708 C 108.597 122.708,109.086 122.853,109.451 123.140 M123.542 124.896 C 123.542 126.215,123.459 127.083,123.333 127.083 C 123.219 127.083,123.125 126.986,123.125 126.868 C 123.125 126.719,123.000 126.719,122.722 126.868 C 121.698 127.416,120.417 126.667,120.417 125.521 C 120.417 124.453,122.127 123.395,122.604 124.167 C 122.885 124.621,123.125 124.333,123.125 123.542 C 123.125 123.083,123.219 122.708,123.333 122.708 C 123.459 122.708,123.542 123.576,123.542 124.896 M124.792 123.021 C 124.792 123.193,124.698 123.333,124.583 123.333 C 124.469 123.333,124.375 123.193,124.375 123.021 C 124.375 122.849,124.469 122.708,124.583 122.708 C 124.698 122.708,124.792 122.849,124.792 123.021 M100.833 123.438 C 100.833 123.785,100.954 123.966,101.198 123.983 C 101.545 124.006,101.545 124.011,101.198 124.102 C 100.614 124.255,100.663 126.667,101.250 126.667 C 101.479 126.667,101.667 126.767,101.667 126.889 C 101.667 127.011,101.409 127.081,101.094 127.045 C 100.549 126.982,100.518 126.919,100.457 125.736 C 100.422 125.053,100.293 124.373,100.171 124.226 C 100.013 124.035,100.016 123.958,100.183 123.958 C 100.311 123.958,100.417 123.724,100.417 123.438 C 100.417 123.151,100.510 122.917,100.625 122.917 C 100.740 122.917,100.833 123.151,100.833 123.438 M107.500 124.167 L 107.500 125.208 108.214 125.208 C 109.430 125.208,110.132 123.850,109.180 123.341 C 108.089 122.756,107.500 123.046,107.500 124.167 M136.250 125.221 C 136.250 126.341,136.318 126.667,136.550 126.667 C 136.715 126.667,136.908 126.760,136.979 126.875 C 137.059 127.003,136.704 127.083,136.054 127.083 C 135.474 127.083,135.000 126.990,135.000 126.875 C 135.000 126.760,135.188 126.667,135.417 126.667 C 135.787 126.667,135.833 126.528,135.833 125.409 C 135.833 124.199,135.817 124.161,135.399 124.385 C 135.160 124.512,134.902 124.550,134.826 124.468 C 134.750 124.385,134.791 124.281,134.918 124.235 C 135.045 124.189,135.326 124.023,135.541 123.865 C 136.137 123.430,136.250 123.646,136.250 125.221 M140.000 123.958 C 140.293 124.252,140.417 124.653,140.417 125.313 C 140.417 126.978,138.877 127.736,137.932 126.534 C 136.658 124.915,138.573 122.531,140.000 123.958 M85.625 125.521 C 85.625 126.424,85.537 127.083,85.417 127.083 C 85.296 127.083,85.208 126.424,85.208 125.521 C 85.208 124.618,85.296 123.958,85.417 123.958 C 85.537 123.958,85.625 124.618,85.625 125.521 M88.660 124.189 C 88.759 124.350,88.853 124.336,88.973 124.143 C 89.265 123.671,89.333 123.992,89.407 126.198 C 89.461 127.806,89.415 128.334,89.219 128.334 C 89.048 128.333,88.958 128.004,88.958 127.381 C 88.958 126.515,88.929 126.458,88.631 126.756 C 87.778 127.609,86.417 126.849,86.417 125.521 C 86.417 124.290,88.103 123.288,88.660 124.189 M90.625 125.198 C 90.625 126.584,90.948 126.979,91.812 126.651 C 92.082 126.548,92.292 126.548,92.292 126.650 C 92.292 127.193,90.713 127.220,90.424 126.680 C 90.148 126.164,90.142 123.958,90.417 123.958 C 90.532 123.958,90.625 124.510,90.625 125.198 M92.917 125.191 C 92.917 125.869,92.974 126.573,93.043 126.754 C 93.216 127.205,92.766 127.173,92.547 126.719 C 92.324 126.258,92.474 123.958,92.728 123.958 C 92.832 123.958,92.917 124.513,92.917 125.191 M94.167 125.521 C 94.167 126.424,94.079 127.083,93.958 127.083 C 93.838 127.083,93.750 126.424,93.750 125.521 C 93.750 124.618,93.838 123.958,93.958 123.958 C 94.079 123.958,94.167 124.618,94.167 125.521 M99.375 125.521 C 99.375 126.424,99.287 127.083,99.167 127.083 C 99.046 127.083,98.958 126.424,98.958 125.521 C 98.958 124.618,99.046 123.958,99.167 123.958 C 99.287 123.958,99.375 124.618,99.375 125.521 M102.904 125.260 L 103.497 126.563 103.857 125.729 C 104.054 125.271,104.296 124.685,104.395 124.427 C 104.493 124.169,104.664 123.958,104.775 123.958 C 105.153 123.958,103.255 128.218,102.842 128.298 C 102.492 128.366,102.497 128.320,102.908 127.765 L 103.357 127.158 102.628 125.558 C 102.227 124.678,101.991 123.958,102.105 123.958 C 102.218 123.958,102.578 124.544,102.904 125.260 M111.078 124.323 C 111.220 124.937,111.015 127.083,110.814 127.083 C 110.710 127.083,110.625 126.380,110.625 125.521 C 110.625 124.091,110.872 123.437,111.078 124.323 M111.991 124.277 C 111.465 124.676,111.126 124.671,111.458 124.271 C 111.601 124.099,111.870 123.961,112.057 123.965 C 112.342 123.971,112.331 124.020,111.991 124.277 M115.019 124.348 C 116.107 125.230,115.373 127.083,113.935 127.083 C 113.108 127.083,112.500 126.421,112.500 125.521 C 112.500 124.145,113.940 123.475,115.019 124.348 M116.701 125.208 C 116.967 125.896,117.233 126.458,117.292 126.458 C 117.350 126.458,117.616 125.896,117.883 125.208 C 118.149 124.521,118.452 123.958,118.556 123.958 C 118.659 123.958,118.548 124.451,118.309 125.052 C 118.070 125.654,117.789 126.364,117.686 126.632 C 117.401 127.366,117.106 127.109,116.439 125.546 C 115.759 123.951,115.761 123.958,116.025 123.958 C 116.130 123.958,116.434 124.521,116.701 125.208 M119.792 125.521 C 119.792 126.424,119.704 127.083,119.583 127.083 C 119.463 127.083,119.375 126.424,119.375 125.521 C 119.375 124.618,119.463 123.958,119.583 123.958 C 119.704 123.958,119.792 124.618,119.792 125.521 M124.792 125.521 C 124.792 126.424,124.704 127.083,124.583 127.083 C 124.463 127.083,124.375 126.424,124.375 125.521 C 124.375 124.618,124.463 123.958,124.583 123.958 C 124.704 123.958,124.792 124.618,124.792 125.521 M126.042 124.303 C 126.042 124.624,126.068 124.624,126.423 124.303 C 126.868 123.900,127.726 123.851,128.083 124.208 C 128.386 124.511,128.424 127.083,128.125 127.083 C 128.009 127.083,127.917 126.530,127.917 125.841 C 127.917 124.308,127.478 123.901,126.585 124.603 C 126.131 124.960,126.042 125.199,126.042 126.057 C 126.042 126.621,125.948 127.083,125.833 127.083 C 125.713 127.083,125.625 126.424,125.625 125.521 C 125.625 124.618,125.713 123.958,125.833 123.958 C 125.948 123.958,126.042 124.113,126.042 124.303 M131.417 124.208 C 131.611 124.403,131.667 124.403,131.667 124.208 C 131.667 124.071,131.760 123.958,131.875 123.958 C 132.255 123.958,132.133 127.516,131.739 127.952 C 131.283 128.456,129.750 128.475,129.348 127.982 C 129.094 127.669,129.108 127.649,129.479 127.803 C 130.730 128.321,131.667 128.003,131.667 127.061 C 131.667 126.721,131.599 126.688,131.264 126.868 C 129.759 127.673,128.310 125.667,129.470 124.385 C 129.901 123.909,131.016 123.808,131.417 124.208 M138.132 124.361 C 137.589 125.377,138.032 126.667,138.924 126.667 C 139.719 126.667,140.000 126.313,140.000 125.313 C 140.000 124.010,138.680 123.338,138.132 124.361 M87.178 124.678 C 86.461 125.395,86.595 126.182,87.519 126.677 C 88.654 127.284,89.566 125.241,88.495 124.491 C 87.883 124.062,87.779 124.077,87.178 124.678 M95.868 124.499 C 94.763 125.273,95.854 127.324,96.977 126.583 C 97.834 126.018,97.436 124.167,96.458 124.167 C 96.395 124.167,96.129 124.316,95.868 124.499 M113.380 124.491 C 112.309 125.241,113.221 127.284,114.356 126.677 C 115.280 126.182,115.414 125.395,114.697 124.678 C 114.096 124.077,113.992 124.062,113.380 124.491 M121.250 124.583 C 120.140 125.693,121.622 127.362,122.865 126.400 C 123.519 125.894,122.835 124.167,121.979 124.167 C 121.807 124.167,121.479 124.354,121.250 124.583 M129.886 124.678 C 129.169 125.395,129.303 126.182,130.227 126.677 C 131.362 127.284,132.275 125.241,131.204 124.491 C 130.592 124.062,130.487 124.077,129.886 124.678 M79.881 135.536 C 80.269 135.923,80.358 140.165,79.993 140.847 C 79.731 141.336,74.885 141.469,74.417 141.000 C 74.012 140.595,74.077 135.952,74.494 135.536 C 74.971 135.059,79.404 135.059,79.881 135.536 M83.038 137.562 C 83.453 138.273,83.822 138.885,83.857 138.922 C 83.892 138.960,84.310 138.325,84.785 137.511 C 85.870 135.654,86.042 135.769,86.042 138.346 C 86.042 140.856,85.667 141.142,85.581 138.698 L 85.521 136.979 84.796 138.281 C 83.912 139.869,83.915 139.869,83.075 138.385 L 82.396 137.188 82.335 138.802 C 82.243 141.236,81.875 140.767,81.875 138.217 C 81.875 135.725,81.943 135.686,83.038 137.562 M92.708 137.543 L 92.708 139.045 93.602 138.168 C 94.656 137.133,95.410 136.951,94.428 137.969 L 93.775 138.646 94.386 139.463 C 94.723 139.912,94.943 140.334,94.877 140.400 C 94.758 140.519,94.121 139.831,93.753 139.185 C 93.483 138.712,92.832 139.151,92.747 139.865 C 92.581 141.250,92.292 140.209,92.292 138.229 C 92.292 136.910,92.374 136.042,92.500 136.042 C 92.620 136.042,92.708 136.681,92.708 137.543 M99.583 136.771 C 99.583 137.119,99.704 137.300,99.948 137.316 C 100.295 137.339,100.295 137.345,99.948 137.435 C 99.364 137.588,99.413 140.000,100.000 140.000 C 100.229 140.000,100.417 140.100,100.417 140.222 C 100.417 140.344,100.159 140.415,99.844 140.378 C 99.298 140.316,99.268 140.254,99.211 139.063 C 99.169 138.197,99.045 137.732,98.806 137.552 C 98.487 137.311,98.488 137.292,98.814 137.292 C 99.051 137.292,99.167 137.121,99.167 136.771 C 99.167 136.484,99.260 136.250,99.375 136.250 C 99.490 136.250,99.583 136.484,99.583 136.771 M136.250 138.554 C 136.250 139.674,136.318 140.000,136.550 140.000 C 136.715 140.000,136.908 140.094,136.979 140.208 C 137.059 140.337,136.704 140.417,136.054 140.417 C 135.474 140.417,135.000 140.323,135.000 140.208 C 135.000 140.094,135.188 140.000,135.417 140.000 C 135.787 140.000,135.833 139.861,135.833 138.743 C 135.833 137.533,135.817 137.494,135.399 137.718 C 135.160 137.846,134.902 137.883,134.826 137.801 C 134.750 137.719,134.791 137.614,134.918 137.568 C 135.045 137.522,135.326 137.356,135.541 137.198 C 136.137 136.763,136.250 136.980,136.250 138.554 M139.992 137.331 C 140.570 137.952,140.575 139.425,140.000 140.000 C 139.401 140.599,138.460 140.539,137.932 139.868 C 136.647 138.235,138.597 135.834,139.992 137.331 M88.949 137.490 C 89.135 137.607,89.305 138.194,89.386 138.997 C 89.536 140.473,89.510 140.579,89.086 140.228 C 88.882 140.059,88.744 140.049,88.652 140.198 C 88.358 140.674,87.088 140.447,86.826 139.871 C 86.491 139.135,87.244 138.466,88.274 138.586 C 88.807 138.649,88.958 138.589,88.958 138.317 C 88.958 137.697,88.378 137.392,87.692 137.651 C 87.127 137.864,86.897 137.756,87.222 137.431 C 87.426 137.227,88.597 137.267,88.949 137.490 M90.661 137.656 C 90.803 138.270,90.598 140.417,90.397 140.417 C 90.293 140.417,90.208 139.714,90.208 138.854 C 90.208 137.424,90.455 136.770,90.661 137.656 M91.575 137.611 C 91.048 138.009,90.709 138.005,91.042 137.604 C 91.184 137.432,91.454 137.295,91.640 137.298 C 91.925 137.304,91.915 137.354,91.575 137.611 M97.902 137.841 C 98.638 138.777,98.489 138.958,96.979 138.958 C 95.540 138.958,95.365 139.115,96.042 139.792 C 96.543 140.293,96.842 140.313,97.454 139.884 C 97.942 139.542,98.092 139.741,97.667 140.167 C 96.881 140.952,95.208 140.013,95.208 138.787 C 95.208 137.422,97.060 136.771,97.902 137.841 M101.458 138.854 C 101.458 139.757,101.370 140.417,101.250 140.417 C 101.130 140.417,101.042 139.757,101.042 138.854 C 101.042 137.951,101.130 137.292,101.250 137.292 C 101.370 137.292,101.458 137.951,101.458 138.854 M102.708 137.507 C 102.708 137.656,102.834 137.656,103.111 137.507 C 103.855 137.109,104.576 137.245,104.797 137.826 C 105.063 138.526,105.059 140.417,104.792 140.417 C 104.677 140.417,104.583 139.908,104.583 139.286 C 104.583 137.690,103.975 137.196,102.969 137.975 C 102.818 138.091,102.708 138.646,102.708 139.296 C 102.708 139.913,102.615 140.417,102.500 140.417 C 102.380 140.417,102.292 139.757,102.292 138.854 C 102.292 137.951,102.380 137.292,102.500 137.292 C 102.615 137.292,102.708 137.389,102.708 137.507 M107.884 137.550 C 108.090 137.756,108.182 137.746,108.339 137.498 C 108.470 137.290,108.536 137.820,108.538 139.100 C 108.541 140.563,108.465 141.089,108.214 141.339 C 107.828 141.725,106.442 141.776,106.083 141.417 C 105.642 140.976,105.816 140.813,106.353 141.164 C 107.025 141.604,107.856 141.402,108.166 140.723 C 108.431 140.141,108.247 139.795,107.872 140.170 C 107.128 140.913,105.625 139.970,105.625 138.761 C 105.625 137.643,107.156 136.823,107.884 137.550 M138.132 137.695 C 137.589 138.710,138.032 140.000,138.924 140.000 C 139.719 140.000,140.000 139.646,140.000 138.646 C 140.000 137.344,138.680 136.671,138.132 137.695 M96.088 137.824 C 95.251 138.410,95.502 138.750,96.771 138.750 C 98.001 138.750,98.156 138.573,97.500 137.917 C 96.999 137.415,96.700 137.396,96.088 137.824 M106.458 137.917 C 105.653 138.722,106.108 140.052,107.188 140.052 C 108.341 140.052,108.729 138.675,107.784 137.932 C 107.105 137.397,106.979 137.396,106.458 137.917 M87.402 139.032 C 86.970 139.348,87.081 139.932,87.613 140.136 C 88.105 140.325,88.958 139.859,88.958 139.402 C 88.958 138.756,88.068 138.545,87.402 139.032 M273.583 161.917 C 273.241 162.259,273.269 163.020,273.634 163.324 C 274.055 163.673,274.795 163.518,275.130 163.011 C 275.692 162.160,274.315 161.185,273.583 161.917 M274.861 162.326 C 275.130 162.752,274.722 163.333,274.155 163.333 C 273.677 163.333,273.425 162.579,273.766 162.169 C 274.081 161.789,274.567 161.859,274.861 162.326 M276.057 163.229 C 275.472 163.974,275.065 164.579,275.153 164.574 C 275.405 164.560,277.458 161.875,277.217 161.875 C 277.164 161.875,276.642 162.484,276.057 163.229 M269.580 163.025 C 268.444 164.234,269.205 166.676,270.713 166.660 C 273.111 166.635,273.111 162.531,270.713 162.507 C 270.292 162.502,269.904 162.680,269.580 163.025 M266.175 164.242 C 264.733 166.125,264.729 166.213,266.094 166.291 C 267.114 166.350,267.192 166.393,267.253 166.927 C 267.336 167.647,267.708 167.684,267.708 166.973 C 267.708 166.683,267.849 166.391,268.021 166.325 C 268.193 166.259,268.333 166.122,268.333 166.019 C 268.333 165.917,268.193 165.833,268.021 165.833 C 267.771 165.833,267.708 165.521,267.708 164.271 C 267.708 162.342,267.631 162.340,266.175 164.242 M271.652 163.466 C 272.803 164.930,271.295 167.110,269.964 165.905 C 269.465 165.454,269.443 163.834,269.928 163.298 C 270.420 162.754,271.148 162.825,271.652 163.466 M267.292 164.792 L 267.292 165.833 266.458 165.833 C 266.000 165.833,265.625 165.780,265.625 165.715 C 265.625 165.442,267.002 163.768,267.240 163.753 C 267.268 163.751,267.292 164.219,267.292 164.792 M274.349 165.366 C 274.068 165.681,273.753 166.080,273.650 166.251 C 273.327 166.786,274.121 166.066,274.607 165.383 C 275.143 164.631,275.012 164.622,274.349 165.366 M275.952 165.119 C 275.108 165.963,276.236 167.131,277.266 166.479 C 277.423 166.379,277.552 166.042,277.552 165.729 C 277.552 164.830,276.603 164.468,275.952 165.119 M277.191 165.427 C 277.339 165.894,276.986 166.458,276.544 166.458 C 276.096 166.458,275.756 165.657,276.053 165.299 C 276.414 164.864,277.034 164.933,277.191 165.427 " stroke="none" fill="#fbfbfb" fill-rule="evenodd"></path></g></svg>