<svg width="32" height="32" xmlns="http://www.w3.org/2000/svg" xmlns:xlink="http://www.w3.org/1999/xlink" version="1.1" xml:space="preserve">
 <g>
  <title>Layer 1</title>
  <clipPath id="SVGID_2_">
   <use xlink:href="#SVGID_1_" id="svg_4"/>
  </clipPath>
  <g stroke="null">
   <path stroke="null" d="m16.18182,32.36363c8.93698,0 16.18182,-7.24483 16.18182,-16.18182c0,-8.93698 -7.24483,-16.18182 -16.18182,-16.18182c-8.93698,0 -16.18182,7.24483 -16.18182,16.18182c0,8.93698 7.24483,16.18182 16.18182,16.18182z" fill="#2775CA"/>
   <path stroke="null" d="m13.29838,27.51178c0,0.37508 -0.30365,0.58942 -0.66086,0.48225c-4.89385,-1.55389 -8.43025,-6.1441 -8.43025,-11.55587c0,-5.41181 3.55427,-10.00201 8.43025,-11.55591c0.37508,-0.10717 0.66086,0.10717 0.66086,0.48225l0,0.9466c0,0.25008 -0.19647,0.55369 -0.44652,0.64299c-3.85791,1.39315 -6.62635,5.10816 -6.62635,9.46619c0,4.358 2.76844,8.07304 6.64419,9.50189c0.23221,0.0893 0.44652,0.37508 0.44652,0.64299l0,0.9466l-0.01783,0z" fill="#fff"/>
   <path stroke="null" d="m17.23121,23.77264c0,0.28574 -0.23218,0.50009 -0.50009,0.50009l-1.0002,0c-0.28578,0 -0.50012,-0.23218 -0.50012,-0.50009l0,-1.60749c-2.21472,-0.30361 -3.28636,-1.53599 -3.57214,-3.21492c-0.05357,-0.28578 0.17861,-0.55369 0.46438,-0.55369l1.14308,0c0.23221,0 0.44652,0.17861 0.50012,0.41082c0.21431,1.0002 0.78586,1.7682 2.57193,1.7682c1.30385,0 2.23258,-0.73229 2.23258,-1.8218c0,-1.08947 -0.55369,-1.50029 -2.46476,-1.82177c-2.83987,-0.35721 -4.17943,-1.21455 -4.17943,-3.44713c0,-1.71463 1.28598,-3.03632 3.30423,-3.32209l0,-1.57176c0,-0.28574 0.23221,-0.50009 0.50012,-0.50009l1.0002,0c0.28578,0 0.50009,0.23218 0.50009,0.50009l0,1.60749c1.62533,0.28574 2.66127,1.21451 3.00061,2.75054c0.07144,0.28578 -0.16074,0.57156 -0.46438,0.57156l-1.07164,0c-0.23221,0 -0.41082,-0.16077 -0.48225,-0.37508c-0.28578,-0.98234 -0.98234,-1.39315 -2.19685,-1.39315c-1.33955,0 -2.03614,0.64299 -2.03614,1.55389c0,0.96447 0.39295,1.44672 2.44693,1.7325c2.78627,0.37508 4.21513,1.17881 4.21513,3.5364c0,1.80394 -1.33955,3.25066 -3.4114,3.59l0,1.60749z" fill="#fff"/>
   <path stroke="null" d="m19.77327,28.01838c-0.37505,0.10717 -0.66082,-0.10717 -0.66082,-0.48222l0,-0.94664c0,-0.28578 0.17861,-0.53582 0.44652,-0.64299c3.87578,-1.42885 6.64419,-5.14386 6.64419,-9.50189c0,-4.35803 -2.78627,-8.05517 -6.66205,-9.48406c-0.23218,-0.0893 -0.44652,-0.37505 -0.44652,-0.64296l0,-0.94664c0,-0.37508 0.30365,-0.60726 0.66086,-0.48225c4.89382,1.55389 8.43025,6.1441 8.43025,11.55591c0.01787,5.41181 -3.51857,10.00201 -8.41242,11.57374z" fill="#fff"/>
  </g>
 </g>

</svg>